<svg xmlns="http://www.w3.org/2000/svg" xmlns:xlink="http://www.w3.org/1999/xlink" width="500" zoomAndPan="magnify" viewBox="0 0 375 374.999991" height="500" preserveAspectRatio="xMidYMid meet" version="1.0"><defs><g/></defs><path stroke-linecap="butt" transform="matrix(0.75, 0, 0, 0.75, 66.081987, 233.330946)" fill="none" stroke-linejoin="miter" d="M 0.0000595858 0.501447 L 323.781331 0.501447 " stroke="#000000" stroke-width="1" stroke-opacity="1" stroke-miterlimit="4"/><g fill="#000000" fill-opacity="1"><g transform="translate(70.579401, 173.35616)"><g><path d="M 15.984375 -17.28125 C 15.984375 -17.21875 15.925781 -17.175781 15.8125 -17.15625 C 15.695312 -17.144531 15.628906 -17.175781 15.609375 -17.25 C 15.535156 -18.488281 15.160156 -19.453125 14.484375 -20.140625 C 13.804688 -20.828125 12.90625 -21.171875 11.78125 -21.171875 L 9.640625 -21.171875 C 8.847656 -21.171875 8.253906 -21.113281 7.859375 -21 C 7.460938 -20.882812 7.1875 -20.675781 7.03125 -20.375 C 6.875 -20.070312 6.796875 -19.625 6.796875 -19.03125 L 6.796875 -11.359375 L 10.34375 -11.359375 C 11.582031 -11.359375 12.460938 -11.550781 12.984375 -11.9375 C 13.515625 -12.320312 13.78125 -12.945312 13.78125 -13.8125 C 13.78125 -13.863281 13.847656 -13.890625 13.984375 -13.890625 C 14.128906 -13.890625 14.203125 -13.863281 14.203125 -13.8125 L 14.171875 -10.96875 C 14.171875 -10.289062 14.179688 -9.78125 14.203125 -9.4375 L 14.234375 -7.75 C 14.234375 -7.695312 14.160156 -7.671875 14.015625 -7.671875 C 13.878906 -7.671875 13.8125 -7.695312 13.8125 -7.75 C 13.8125 -8.78125 13.535156 -9.515625 12.984375 -9.953125 C 12.441406 -10.398438 11.523438 -10.625 10.234375 -10.625 L 6.796875 -10.625 L 6.796875 -2.984375 C 6.796875 -2.234375 6.894531 -1.6875 7.09375 -1.34375 C 7.289062 -1.007812 7.679688 -0.769531 8.265625 -0.625 C 8.859375 -0.488281 9.785156 -0.421875 11.046875 -0.421875 C 11.117188 -0.421875 11.15625 -0.347656 11.15625 -0.203125 C 11.15625 -0.0664062 11.117188 0 11.046875 0 C 10.085938 0 9.335938 -0.0078125 8.796875 -0.03125 L 5.640625 -0.0625 L 3.265625 -0.03125 C 2.835938 -0.0078125 2.238281 0 1.46875 0 C 1.425781 0 1.40625 -0.0664062 1.40625 -0.203125 C 1.40625 -0.347656 1.425781 -0.421875 1.46875 -0.421875 C 2.363281 -0.421875 3.019531 -0.476562 3.4375 -0.59375 C 3.851562 -0.707031 4.132812 -0.929688 4.28125 -1.265625 C 4.4375 -1.609375 4.515625 -2.132812 4.515625 -2.84375 L 4.515625 -19.078125 C 4.515625 -19.773438 4.4375 -20.285156 4.28125 -20.609375 C 4.132812 -20.941406 3.859375 -21.171875 3.453125 -21.296875 C 3.046875 -21.429688 2.394531 -21.5 1.5 -21.5 C 1.457031 -21.5 1.4375 -21.566406 1.4375 -21.703125 C 1.4375 -21.847656 1.457031 -21.921875 1.5 -21.921875 L 15.609375 -21.921875 C 15.816406 -21.921875 15.921875 -21.8125 15.921875 -21.59375 Z M 15.984375 -17.28125 "/></g></g></g><g fill="#000000" fill-opacity="1"><g transform="translate(88.426244, 173.35616)"><g><path d="M 19.5 -0.421875 C 19.59375 -0.421875 19.640625 -0.347656 19.640625 -0.203125 C 19.640625 -0.0664062 19.59375 0 19.5 0 C 19.070312 0 18.394531 -0.0195312 17.46875 -0.0625 C 16.53125 -0.113281 15.847656 -0.140625 15.421875 -0.140625 C 15.046875 -0.140625 14.554688 -0.113281 13.953125 -0.0625 C 13.347656 -0.0195312 12.878906 0 12.546875 0 C 12.453125 0 12.40625 -0.0664062 12.40625 -0.203125 C 12.40625 -0.347656 12.453125 -0.421875 12.546875 -0.421875 C 13.160156 -0.421875 13.613281 -0.492188 13.90625 -0.640625 C 14.195312 -0.796875 14.34375 -1.070312 14.34375 -1.46875 C 14.34375 -1.820312 14.203125 -2.3125 13.921875 -2.9375 L 11.53125 -8.0625 L 6.625 -8.0625 L 5.125 -4.3125 C 4.75 -3.425781 4.5625 -2.691406 4.5625 -2.109375 C 4.5625 -1.492188 4.769531 -1.054688 5.1875 -0.796875 C 5.613281 -0.546875 6.257812 -0.421875 7.125 -0.421875 C 7.238281 -0.421875 7.296875 -0.347656 7.296875 -0.203125 C 7.296875 -0.0664062 7.238281 0 7.125 0 C 6.769531 0 6.289062 -0.0195312 5.6875 -0.0625 C 5.03125 -0.113281 4.421875 -0.140625 3.859375 -0.140625 C 3.273438 -0.140625 2.582031 -0.113281 1.78125 -0.0625 C 1.082031 -0.0195312 0.523438 0 0.109375 0 C -0.00390625 0 -0.0625 -0.0664062 -0.0625 -0.203125 C -0.0625 -0.347656 -0.00390625 -0.421875 0.109375 -0.421875 C 0.828125 -0.421875 1.394531 -0.519531 1.8125 -0.71875 C 2.238281 -0.914062 2.632812 -1.304688 3 -1.890625 C 3.363281 -2.472656 3.800781 -3.382812 4.3125 -4.625 L 9.359375 -16.9375 C 9.410156 -17.03125 9.484375 -17.078125 9.578125 -17.078125 C 9.671875 -17.078125 9.726562 -17.03125 9.75 -16.9375 L 15.390625 -4.796875 C 15.992188 -3.492188 16.476562 -2.550781 16.84375 -1.96875 C 17.207031 -1.382812 17.582031 -0.976562 17.96875 -0.75 C 18.351562 -0.53125 18.863281 -0.421875 19.5 -0.421875 Z M 6.875 -8.703125 L 11.25 -8.703125 L 8.90625 -13.75 Z M 6.875 -8.703125 "/></g></g></g><g fill="#000000" fill-opacity="1"><g transform="translate(108.026207, 173.35616)"><g><path d="M 10.90625 -16.828125 C 11.789062 -16.828125 12.738281 -16.734375 13.75 -16.546875 C 14.769531 -16.359375 15.597656 -16.113281 16.234375 -15.8125 C 16.398438 -15.738281 16.503906 -15.664062 16.546875 -15.59375 C 16.597656 -15.53125 16.632812 -15.40625 16.65625 -15.21875 L 17 -11.609375 C 17 -11.535156 16.9375 -11.488281 16.8125 -11.46875 C 16.6875 -11.445312 16.609375 -11.484375 16.578125 -11.578125 C 16.160156 -13.179688 15.394531 -14.367188 14.28125 -15.140625 C 13.175781 -15.910156 11.804688 -16.296875 10.171875 -16.296875 C 8.953125 -16.296875 7.859375 -15.96875 6.890625 -15.3125 C 5.921875 -14.664062 5.160156 -13.773438 4.609375 -12.640625 C 4.054688 -11.503906 3.78125 -10.222656 3.78125 -8.796875 C 3.78125 -7.347656 4.054688 -5.953125 4.609375 -4.609375 C 5.160156 -3.265625 5.988281 -2.171875 7.09375 -1.328125 C 8.207031 -0.484375 9.546875 -0.0625 11.109375 -0.0625 C 14.054688 -0.0625 15.988281 -1.675781 16.90625 -4.90625 C 16.90625 -4.976562 16.960938 -5.015625 17.078125 -5.015625 C 17.117188 -5.015625 17.171875 -4.992188 17.234375 -4.953125 C 17.296875 -4.921875 17.328125 -4.894531 17.328125 -4.875 L 16.859375 -1.15625 C 16.835938 -0.96875 16.800781 -0.835938 16.75 -0.765625 C 16.707031 -0.703125 16.582031 -0.625 16.375 -0.53125 C 14.570312 0.101562 12.703125 0.421875 10.765625 0.421875 C 8.546875 0.421875 6.722656 -0.0195312 5.296875 -0.90625 C 3.867188 -1.800781 2.835938 -2.910156 2.203125 -4.234375 C 1.578125 -5.566406 1.265625 -6.914062 1.265625 -8.28125 C 1.265625 -9.863281 1.679688 -11.3125 2.515625 -12.625 C 3.359375 -13.9375 4.515625 -14.960938 5.984375 -15.703125 C 7.460938 -16.453125 9.101562 -16.828125 10.90625 -16.828125 Z M 10.90625 -16.828125 "/></g></g></g><g fill="#000000" fill-opacity="1"><g transform="translate(126.889857, 173.35616)"><g><path d="M 14.453125 -4.65625 C 14.453125 -4.726562 14.515625 -4.765625 14.640625 -4.765625 C 14.765625 -4.765625 14.828125 -4.726562 14.828125 -4.65625 C 14.671875 -2.976562 14.59375 -1.601562 14.59375 -0.53125 C 14.59375 -0.34375 14.554688 -0.207031 14.484375 -0.125 C 14.410156 -0.0390625 14.269531 0 14.0625 0 L 1.234375 0 C 1.179688 0 1.15625 -0.0664062 1.15625 -0.203125 C 1.15625 -0.347656 1.179688 -0.421875 1.234375 -0.421875 C 2.003906 -0.421875 2.5625 -0.476562 2.90625 -0.59375 C 3.257812 -0.707031 3.5 -0.929688 3.625 -1.265625 C 3.757812 -1.609375 3.828125 -2.132812 3.828125 -2.84375 L 3.828125 -13.5625 C 3.828125 -14.269531 3.757812 -14.785156 3.625 -15.109375 C 3.5 -15.441406 3.257812 -15.671875 2.90625 -15.796875 C 2.5625 -15.921875 2.003906 -15.984375 1.234375 -15.984375 C 1.179688 -15.984375 1.15625 -16.050781 1.15625 -16.1875 C 1.15625 -16.332031 1.179688 -16.40625 1.234375 -16.40625 L 13.421875 -16.40625 C 13.660156 -16.40625 13.78125 -16.3125 13.78125 -16.125 L 13.8125 -13.953125 C 13.832031 -13.503906 13.84375 -12.941406 13.84375 -12.265625 C 13.84375 -12.203125 13.769531 -12.171875 13.625 -12.171875 C 13.488281 -12.171875 13.421875 -12.203125 13.421875 -12.265625 C 13.328125 -13.347656 12.9375 -14.234375 12.25 -14.921875 C 11.5625 -15.609375 10.71875 -15.953125 9.71875 -15.953125 L 8.734375 -15.953125 C 7.910156 -15.953125 7.3125 -15.882812 6.9375 -15.75 C 6.5625 -15.625 6.300781 -15.398438 6.15625 -15.078125 C 6.019531 -14.753906 5.953125 -14.238281 5.953125 -13.53125 L 5.953125 -8.734375 C 8.222656 -8.753906 9.769531 -8.816406 10.59375 -8.921875 C 11.425781 -9.023438 11.90625 -9.078125 12.03125 -9.078125 C 12.144531 -9.078125 12.203125 -8.832031 12.203125 -8.34375 C 12.203125 -7.800781 12.144531 -7.53125 12.03125 -7.53125 C 11.9375 -7.53125 11.46875 -7.59375 10.625 -7.71875 C 9.78125 -7.851562 8.222656 -7.945312 5.953125 -8 L 5.953125 -2.984375 C 5.953125 -2.304688 6.019531 -1.796875 6.15625 -1.453125 C 6.300781 -1.117188 6.566406 -0.882812 6.953125 -0.75 C 7.335938 -0.625 7.929688 -0.5625 8.734375 -0.5625 L 10.40625 -0.5625 C 11.34375 -0.5625 12.1875 -0.941406 12.9375 -1.703125 C 13.6875 -2.460938 14.191406 -3.445312 14.453125 -4.65625 Z M 14.453125 -4.65625 "/></g></g></g><g fill="#000000" fill-opacity="1"><g transform="translate(143.15888, 173.35616)"><g/></g></g><g fill="#000000" fill-opacity="1"><g transform="translate(151.363515, 173.35616)"><g><path d="M 6.625 -21.28125 C 5.15625 -21.28125 4.050781 -20.90625 3.3125 -20.15625 C 2.570312 -19.40625 2.039062 -18.132812 1.71875 -16.34375 C 1.71875 -16.289062 1.648438 -16.265625 1.515625 -16.265625 C 1.390625 -16.265625 1.328125 -16.289062 1.328125 -16.34375 C 1.421875 -17.175781 1.523438 -18.269531 1.640625 -19.625 C 1.765625 -20.988281 1.828125 -22.007812 1.828125 -22.6875 C 1.828125 -22.800781 1.890625 -22.859375 2.015625 -22.859375 C 2.140625 -22.859375 2.203125 -22.800781 2.203125 -22.6875 C 2.203125 -22.175781 2.835938 -21.921875 4.109375 -21.921875 C 6.085938 -21.847656 8.4375 -21.8125 11.15625 -21.8125 C 12.53125 -21.8125 13.988281 -21.832031 15.53125 -21.875 L 17.921875 -21.921875 C 18.753906 -21.921875 19.375 -21.976562 19.78125 -22.09375 C 20.195312 -22.207031 20.460938 -22.441406 20.578125 -22.796875 C 20.597656 -22.890625 20.664062 -22.9375 20.78125 -22.9375 C 20.90625 -22.9375 20.96875 -22.890625 20.96875 -22.796875 C 20.894531 -22.117188 20.820312 -21.085938 20.75 -19.703125 C 20.6875 -18.328125 20.65625 -17.207031 20.65625 -16.34375 C 20.65625 -16.289062 20.582031 -16.265625 20.4375 -16.265625 C 20.300781 -16.265625 20.234375 -16.289062 20.234375 -16.34375 C 20.160156 -18.164062 19.785156 -19.441406 19.109375 -20.171875 C 18.429688 -20.910156 17.3125 -21.28125 15.75 -21.28125 C 14.695312 -21.28125 13.945312 -21.234375 13.5 -21.140625 C 13.050781 -21.046875 12.742188 -20.847656 12.578125 -20.546875 C 12.421875 -20.242188 12.34375 -19.726562 12.34375 -19 L 12.34375 -2.84375 C 12.34375 -2.113281 12.421875 -1.582031 12.578125 -1.25 C 12.742188 -0.925781 13.0625 -0.707031 13.53125 -0.59375 C 14 -0.476562 14.738281 -0.421875 15.75 -0.421875 C 15.8125 -0.421875 15.84375 -0.347656 15.84375 -0.203125 C 15.84375 -0.0664062 15.8125 0 15.75 0 C 14.976562 0 14.359375 -0.0078125 13.890625 -0.03125 L 11.15625 -0.0625 L 8.515625 -0.03125 C 8.046875 -0.0078125 7.40625 0 6.59375 0 C 6.539062 0 6.515625 -0.0664062 6.515625 -0.203125 C 6.515625 -0.347656 6.539062 -0.421875 6.59375 -0.421875 C 7.59375 -0.421875 8.328125 -0.476562 8.796875 -0.59375 C 9.265625 -0.707031 9.585938 -0.929688 9.765625 -1.265625 C 9.941406 -1.609375 10.03125 -2.132812 10.03125 -2.84375 L 10.03125 -19.078125 C 10.03125 -19.796875 9.945312 -20.300781 9.78125 -20.59375 C 9.613281 -20.882812 9.304688 -21.070312 8.859375 -21.15625 C 8.421875 -21.238281 7.675781 -21.28125 6.625 -21.28125 Z M 6.625 -21.28125 "/></g></g></g><g fill="#000000" fill-opacity="1"><g transform="translate(173.59317, 173.35616)"><g><path d="M 19.03125 -0.421875 C 19.082031 -0.421875 19.109375 -0.347656 19.109375 -0.203125 C 19.109375 -0.0664062 19.082031 0 19.03125 0 L 14.9375 0 C 14.519531 0 13.773438 -0.695312 12.703125 -2.09375 C 11.640625 -3.5 10.363281 -5.441406 8.875 -7.921875 C 8.425781 -7.828125 7.921875 -7.78125 7.359375 -7.78125 C 6.773438 -7.78125 6.332031 -7.804688 6.03125 -7.859375 L 6.03125 -2.84375 C 6.03125 -2.113281 6.085938 -1.582031 6.203125 -1.25 C 6.316406 -0.925781 6.550781 -0.707031 6.90625 -0.59375 C 7.257812 -0.476562 7.832031 -0.421875 8.625 -0.421875 C 8.675781 -0.421875 8.703125 -0.347656 8.703125 -0.203125 C 8.703125 -0.0664062 8.675781 0 8.625 0 C 7.96875 0 7.46875 -0.0078125 7.125 -0.03125 L 4.90625 -0.0625 L 2.84375 -0.03125 C 2.445312 -0.0078125 1.910156 0 1.234375 0 C 1.179688 0 1.15625 -0.0664062 1.15625 -0.203125 C 1.15625 -0.347656 1.179688 -0.421875 1.234375 -0.421875 C 2.003906 -0.421875 2.566406 -0.476562 2.921875 -0.59375 C 3.285156 -0.707031 3.535156 -0.929688 3.671875 -1.265625 C 3.816406 -1.609375 3.890625 -2.132812 3.890625 -2.84375 L 3.890625 -13.5625 C 3.890625 -14.269531 3.820312 -14.785156 3.6875 -15.109375 C 3.5625 -15.441406 3.316406 -15.671875 2.953125 -15.796875 C 2.597656 -15.921875 2.035156 -15.984375 1.265625 -15.984375 C 1.210938 -15.984375 1.1875 -16.050781 1.1875 -16.1875 C 1.1875 -16.332031 1.210938 -16.40625 1.265625 -16.40625 L 2.875 -16.375 C 3.71875 -16.320312 4.394531 -16.296875 4.90625 -16.296875 C 5.332031 -16.296875 5.722656 -16.304688 6.078125 -16.328125 C 6.441406 -16.359375 6.753906 -16.382812 7.015625 -16.40625 C 7.734375 -16.476562 8.421875 -16.515625 9.078125 -16.515625 C 10.597656 -16.515625 11.753906 -16.222656 12.546875 -15.640625 C 13.347656 -15.054688 13.75 -14.210938 13.75 -13.109375 C 13.75 -12.171875 13.476562 -11.304688 12.9375 -10.515625 C 12.394531 -9.722656 11.671875 -9.082031 10.765625 -8.59375 C 12.078125 -6.4375 13.179688 -4.78125 14.078125 -3.625 C 14.972656 -2.46875 15.800781 -1.644531 16.5625 -1.15625 C 17.320312 -0.664062 18.144531 -0.421875 19.03125 -0.421875 Z M 6.03125 -8.484375 C 6.445312 -8.410156 6.972656 -8.375 7.609375 -8.375 C 9.054688 -8.375 10.066406 -8.695312 10.640625 -9.34375 C 11.210938 -9.988281 11.5 -10.929688 11.5 -12.171875 C 11.5 -14.742188 10.390625 -16.03125 8.171875 -16.03125 C 7.285156 -16.03125 6.707031 -15.84375 6.4375 -15.46875 C 6.164062 -15.09375 6.03125 -14.4375 6.03125 -13.5 Z M 6.03125 -8.484375 "/></g></g></g><g fill="#000000" fill-opacity="1"><g transform="translate(192.281508, 173.35616)"><g><path d="M 19.5 -0.421875 C 19.59375 -0.421875 19.640625 -0.347656 19.640625 -0.203125 C 19.640625 -0.0664062 19.59375 0 19.5 0 C 19.070312 0 18.394531 -0.0195312 17.46875 -0.0625 C 16.53125 -0.113281 15.847656 -0.140625 15.421875 -0.140625 C 15.046875 -0.140625 14.554688 -0.113281 13.953125 -0.0625 C 13.347656 -0.0195312 12.878906 0 12.546875 0 C 12.453125 0 12.40625 -0.0664062 12.40625 -0.203125 C 12.40625 -0.347656 12.453125 -0.421875 12.546875 -0.421875 C 13.160156 -0.421875 13.613281 -0.492188 13.90625 -0.640625 C 14.195312 -0.796875 14.34375 -1.070312 14.34375 -1.46875 C 14.34375 -1.820312 14.203125 -2.3125 13.921875 -2.9375 L 11.53125 -8.0625 L 6.625 -8.0625 L 5.125 -4.3125 C 4.75 -3.425781 4.5625 -2.691406 4.5625 -2.109375 C 4.5625 -1.492188 4.769531 -1.054688 5.1875 -0.796875 C 5.613281 -0.546875 6.257812 -0.421875 7.125 -0.421875 C 7.238281 -0.421875 7.296875 -0.347656 7.296875 -0.203125 C 7.296875 -0.0664062 7.238281 0 7.125 0 C 6.769531 0 6.289062 -0.0195312 5.6875 -0.0625 C 5.03125 -0.113281 4.421875 -0.140625 3.859375 -0.140625 C 3.273438 -0.140625 2.582031 -0.113281 1.78125 -0.0625 C 1.082031 -0.0195312 0.523438 0 0.109375 0 C -0.00390625 0 -0.0625 -0.0664062 -0.0625 -0.203125 C -0.0625 -0.347656 -0.00390625 -0.421875 0.109375 -0.421875 C 0.828125 -0.421875 1.394531 -0.519531 1.8125 -0.71875 C 2.238281 -0.914062 2.632812 -1.304688 3 -1.890625 C 3.363281 -2.472656 3.800781 -3.382812 4.3125 -4.625 L 9.359375 -16.9375 C 9.410156 -17.03125 9.484375 -17.078125 9.578125 -17.078125 C 9.671875 -17.078125 9.726562 -17.03125 9.75 -16.9375 L 15.390625 -4.796875 C 15.992188 -3.492188 16.476562 -2.550781 16.84375 -1.96875 C 17.207031 -1.382812 17.582031 -0.976562 17.96875 -0.75 C 18.351562 -0.53125 18.863281 -0.421875 19.5 -0.421875 Z M 6.875 -8.703125 L 11.25 -8.703125 L 8.90625 -13.75 Z M 6.875 -8.703125 "/></g></g></g><g fill="#000000" fill-opacity="1"><g transform="translate(211.881471, 173.35616)"><g><path d="M 6.234375 -2.84375 C 6.234375 -2.113281 6.296875 -1.582031 6.421875 -1.25 C 6.554688 -0.925781 6.796875 -0.707031 7.140625 -0.59375 C 7.492188 -0.476562 8.070312 -0.421875 8.875 -0.421875 C 8.914062 -0.421875 8.9375 -0.347656 8.9375 -0.203125 C 8.9375 -0.0664062 8.914062 0 8.875 0 C 8.21875 0 7.703125 -0.0078125 7.328125 -0.03125 L 5.125 -0.0625 L 3.046875 -0.03125 C 2.648438 -0.0078125 2.113281 0 1.4375 0 C 1.394531 0 1.375 -0.0664062 1.375 -0.203125 C 1.375 -0.347656 1.394531 -0.421875 1.4375 -0.421875 C 2.226562 -0.421875 2.800781 -0.476562 3.15625 -0.59375 C 3.507812 -0.707031 3.75 -0.925781 3.875 -1.25 C 4 -1.582031 4.0625 -2.113281 4.0625 -2.84375 L 4.0625 -13.5625 C 4.0625 -14.269531 4 -14.785156 3.875 -15.109375 C 3.75 -15.441406 3.503906 -15.671875 3.140625 -15.796875 C 2.773438 -15.921875 2.207031 -15.984375 1.4375 -15.984375 C 1.394531 -15.984375 1.375 -16.050781 1.375 -16.1875 C 1.375 -16.332031 1.394531 -16.40625 1.4375 -16.40625 L 3.046875 -16.375 C 3.890625 -16.320312 4.582031 -16.296875 5.125 -16.296875 C 5.726562 -16.296875 6.472656 -16.320312 7.359375 -16.375 L 8.875 -16.40625 C 8.914062 -16.40625 8.9375 -16.332031 8.9375 -16.1875 C 8.9375 -16.050781 8.914062 -15.984375 8.875 -15.984375 C 8.125 -15.984375 7.5625 -15.910156 7.1875 -15.765625 C 6.8125 -15.628906 6.554688 -15.390625 6.421875 -15.046875 C 6.296875 -14.710938 6.234375 -14.195312 6.234375 -13.5 Z M 6.234375 -2.84375 "/></g></g></g><g fill="#000000" fill-opacity="1"><g transform="translate(222.154798, 173.35616)"><g><path d="M 18.9375 -16.40625 C 19 -16.40625 19.03125 -16.332031 19.03125 -16.1875 C 19.03125 -16.050781 19 -15.984375 18.9375 -15.984375 C 18.070312 -15.984375 17.453125 -15.726562 17.078125 -15.21875 C 16.703125 -14.707031 16.515625 -13.832031 16.515625 -12.59375 L 16.515625 0.390625 C 16.515625 0.429688 16.453125 0.460938 16.328125 0.484375 C 16.210938 0.515625 16.132812 0.503906 16.09375 0.453125 L 4.59375 -13.53125 C 4.476562 -13.644531 4.328125 -13.820312 4.140625 -14.0625 L 4.140625 -3.828125 C 4.140625 -2.585938 4.3125 -1.707031 4.65625 -1.1875 C 5.007812 -0.675781 5.617188 -0.421875 6.484375 -0.421875 C 6.535156 -0.421875 6.5625 -0.347656 6.5625 -0.203125 C 6.5625 -0.0664062 6.535156 0 6.484375 0 C 5.972656 0 5.578125 -0.0078125 5.296875 -0.03125 L 3.828125 -0.0625 L 2.3125 -0.03125 C 2.007812 -0.0078125 1.585938 0 1.046875 0 C 1.003906 0 0.984375 -0.0664062 0.984375 -0.203125 C 0.984375 -0.347656 1.003906 -0.421875 1.046875 -0.421875 C 1.910156 -0.421875 2.523438 -0.675781 2.890625 -1.1875 C 3.253906 -1.707031 3.4375 -2.585938 3.4375 -3.828125 L 3.4375 -14.765625 C 2.96875 -15.203125 2.546875 -15.515625 2.171875 -15.703125 C 1.796875 -15.890625 1.421875 -15.984375 1.046875 -15.984375 C 1.003906 -15.984375 0.984375 -16.050781 0.984375 -16.1875 C 0.984375 -16.332031 1.003906 -16.40625 1.046875 -16.40625 L 3.015625 -16.375 L 4.875 -16.40625 C 5.039062 -16.40625 5.175781 -16.359375 5.28125 -16.265625 C 5.382812 -16.171875 5.539062 -15.972656 5.75 -15.671875 C 5.9375 -15.367188 6.191406 -15.007812 6.515625 -14.59375 L 15.8125 -3.125 L 15.8125 -12.59375 C 15.8125 -13.832031 15.640625 -14.707031 15.296875 -15.21875 C 14.960938 -15.726562 14.363281 -15.984375 13.5 -15.984375 C 13.425781 -15.984375 13.390625 -16.050781 13.390625 -16.1875 C 13.390625 -16.332031 13.425781 -16.40625 13.5 -16.40625 L 14.6875 -16.375 C 15.300781 -16.320312 15.789062 -16.296875 16.15625 -16.296875 C 16.53125 -16.296875 17.046875 -16.320312 17.703125 -16.375 Z M 18.9375 -16.40625 "/></g></g></g><g fill="#000000" fill-opacity="1"><g transform="translate(242.140449, 173.35616)"><g><path d="M 6.234375 -2.84375 C 6.234375 -2.113281 6.296875 -1.582031 6.421875 -1.25 C 6.554688 -0.925781 6.796875 -0.707031 7.140625 -0.59375 C 7.492188 -0.476562 8.070312 -0.421875 8.875 -0.421875 C 8.914062 -0.421875 8.9375 -0.347656 8.9375 -0.203125 C 8.9375 -0.0664062 8.914062 0 8.875 0 C 8.21875 0 7.703125 -0.0078125 7.328125 -0.03125 L 5.125 -0.0625 L 3.046875 -0.03125 C 2.648438 -0.0078125 2.113281 0 1.4375 0 C 1.394531 0 1.375 -0.0664062 1.375 -0.203125 C 1.375 -0.347656 1.394531 -0.421875 1.4375 -0.421875 C 2.226562 -0.421875 2.800781 -0.476562 3.15625 -0.59375 C 3.507812 -0.707031 3.75 -0.925781 3.875 -1.25 C 4 -1.582031 4.0625 -2.113281 4.0625 -2.84375 L 4.0625 -13.5625 C 4.0625 -14.269531 4 -14.785156 3.875 -15.109375 C 3.75 -15.441406 3.503906 -15.671875 3.140625 -15.796875 C 2.773438 -15.921875 2.207031 -15.984375 1.4375 -15.984375 C 1.394531 -15.984375 1.375 -16.050781 1.375 -16.1875 C 1.375 -16.332031 1.394531 -16.40625 1.4375 -16.40625 L 3.046875 -16.375 C 3.890625 -16.320312 4.582031 -16.296875 5.125 -16.296875 C 5.726562 -16.296875 6.472656 -16.320312 7.359375 -16.375 L 8.875 -16.40625 C 8.914062 -16.40625 8.9375 -16.332031 8.9375 -16.1875 C 8.9375 -16.050781 8.914062 -15.984375 8.875 -15.984375 C 8.125 -15.984375 7.5625 -15.910156 7.1875 -15.765625 C 6.8125 -15.628906 6.554688 -15.390625 6.421875 -15.046875 C 6.296875 -14.710938 6.234375 -14.195312 6.234375 -13.5 Z M 6.234375 -2.84375 "/></g></g></g><g fill="#000000" fill-opacity="1"><g transform="translate(252.413775, 173.35616)"><g><path d="M 18.9375 -16.40625 C 19 -16.40625 19.03125 -16.332031 19.03125 -16.1875 C 19.03125 -16.050781 19 -15.984375 18.9375 -15.984375 C 18.070312 -15.984375 17.453125 -15.726562 17.078125 -15.21875 C 16.703125 -14.707031 16.515625 -13.832031 16.515625 -12.59375 L 16.515625 0.390625 C 16.515625 0.429688 16.453125 0.460938 16.328125 0.484375 C 16.210938 0.515625 16.132812 0.503906 16.09375 0.453125 L 4.59375 -13.53125 C 4.476562 -13.644531 4.328125 -13.820312 4.140625 -14.0625 L 4.140625 -3.828125 C 4.140625 -2.585938 4.3125 -1.707031 4.65625 -1.1875 C 5.007812 -0.675781 5.617188 -0.421875 6.484375 -0.421875 C 6.535156 -0.421875 6.5625 -0.347656 6.5625 -0.203125 C 6.5625 -0.0664062 6.535156 0 6.484375 0 C 5.972656 0 5.578125 -0.0078125 5.296875 -0.03125 L 3.828125 -0.0625 L 2.3125 -0.03125 C 2.007812 -0.0078125 1.585938 0 1.046875 0 C 1.003906 0 0.984375 -0.0664062 0.984375 -0.203125 C 0.984375 -0.347656 1.003906 -0.421875 1.046875 -0.421875 C 1.910156 -0.421875 2.523438 -0.675781 2.890625 -1.1875 C 3.253906 -1.707031 3.4375 -2.585938 3.4375 -3.828125 L 3.4375 -14.765625 C 2.96875 -15.203125 2.546875 -15.515625 2.171875 -15.703125 C 1.796875 -15.890625 1.421875 -15.984375 1.046875 -15.984375 C 1.003906 -15.984375 0.984375 -16.050781 0.984375 -16.1875 C 0.984375 -16.332031 1.003906 -16.40625 1.046875 -16.40625 L 3.015625 -16.375 L 4.875 -16.40625 C 5.039062 -16.40625 5.175781 -16.359375 5.28125 -16.265625 C 5.382812 -16.171875 5.539062 -15.972656 5.75 -15.671875 C 5.9375 -15.367188 6.191406 -15.007812 6.515625 -14.59375 L 15.8125 -3.125 L 15.8125 -12.59375 C 15.8125 -13.832031 15.640625 -14.707031 15.296875 -15.21875 C 14.960938 -15.726562 14.363281 -15.984375 13.5 -15.984375 C 13.425781 -15.984375 13.390625 -16.050781 13.390625 -16.1875 C 13.390625 -16.332031 13.425781 -16.40625 13.5 -16.40625 L 14.6875 -16.375 C 15.300781 -16.320312 15.789062 -16.296875 16.15625 -16.296875 C 16.53125 -16.296875 17.046875 -16.320312 17.703125 -16.375 Z M 18.9375 -16.40625 "/></g></g></g><g fill="#000000" fill-opacity="1"><g transform="translate(272.399427, 173.35616)"><g><path d="M 10.40625 0.421875 C 8.539062 0.421875 6.910156 0.03125 5.515625 -0.75 C 4.128906 -1.53125 3.070312 -2.5625 2.34375 -3.84375 C 1.625 -5.132812 1.265625 -6.492188 1.265625 -7.921875 C 1.265625 -9.742188 1.671875 -11.328125 2.484375 -12.671875 C 3.304688 -14.015625 4.476562 -15.039062 6 -15.75 C 7.519531 -16.46875 9.304688 -16.828125 11.359375 -16.828125 C 12.335938 -16.828125 13.269531 -16.734375 14.15625 -16.546875 C 15.050781 -16.359375 15.800781 -16.09375 16.40625 -15.75 C 16.550781 -15.675781 16.640625 -15.578125 16.671875 -15.453125 C 16.703125 -15.335938 16.734375 -15.175781 16.765625 -14.96875 L 17.109375 -11.671875 C 17.109375 -11.609375 17.039062 -11.566406 16.90625 -11.546875 C 16.78125 -11.535156 16.707031 -11.566406 16.6875 -11.640625 C 16.175781 -13.253906 15.40625 -14.429688 14.375 -15.171875 C 13.34375 -15.921875 12.054688 -16.296875 10.515625 -16.296875 C 8.460938 -16.296875 6.820312 -15.585938 5.59375 -14.171875 C 4.363281 -12.765625 3.75 -10.832031 3.75 -8.375 C 3.75 -6.757812 4.050781 -5.328125 4.65625 -4.078125 C 5.269531 -2.828125 6.140625 -1.851562 7.265625 -1.15625 C 8.398438 -0.457031 9.726562 -0.109375 11.25 -0.109375 C 12.425781 -0.109375 13.285156 -0.210938 13.828125 -0.421875 C 14.378906 -0.628906 14.75 -1.03125 14.9375 -1.625 C 15.125 -2.226562 15.21875 -3.160156 15.21875 -4.421875 C 15.21875 -5.023438 15.148438 -5.445312 15.015625 -5.6875 C 14.890625 -5.9375 14.625 -6.101562 14.21875 -6.1875 C 13.8125 -6.269531 13.101562 -6.3125 12.09375 -6.3125 C 11.957031 -6.3125 11.890625 -6.40625 11.890625 -6.59375 C 11.890625 -6.664062 11.90625 -6.726562 11.9375 -6.78125 C 11.96875 -6.84375 12.007812 -6.875 12.0625 -6.875 C 13.28125 -6.78125 14.507812 -6.734375 15.75 -6.734375 C 16.300781 -6.734375 17.234375 -6.753906 18.546875 -6.796875 C 18.597656 -6.796875 18.640625 -6.765625 18.671875 -6.703125 C 18.703125 -6.648438 18.71875 -6.601562 18.71875 -6.5625 C 18.71875 -6.394531 18.660156 -6.3125 18.546875 -6.3125 C 18.078125 -6.332031 17.75 -6.296875 17.5625 -6.203125 C 17.375 -6.109375 17.253906 -5.914062 17.203125 -5.625 C 17.160156 -5.332031 17.140625 -4.8125 17.140625 -4.0625 C 17.140625 -3.007812 17.160156 -2.273438 17.203125 -1.859375 C 17.253906 -1.441406 17.28125 -1.148438 17.28125 -0.984375 C 17.28125 -0.835938 17.265625 -0.75 17.234375 -0.71875 C 17.203125 -0.6875 17.09375 -0.632812 16.90625 -0.5625 C 15.363281 0.09375 13.195312 0.421875 10.40625 0.421875 Z M 10.40625 0.421875 "/></g></g></g><g fill="#000000" fill-opacity="1"><g transform="translate(79.557277, 204.27176)"><g><path d="M 4.40625 -1.609375 C 4.40625 -2.015625 4.3125 -2.359375 4.109375 -2.640625 C 3.90625 -2.90625 3.640625 -3.09375 3.3125 -3.1875 C 3.5 -3.265625 3.671875 -3.421875 3.796875 -3.65625 C 3.859375 -3.75 3.90625 -3.859375 3.9375 -3.96875 C 3.96875 -4.078125 3.984375 -4.234375 3.984375 -4.421875 C 3.984375 -4.609375 3.9375 -4.8125 3.84375 -5 C 3.59375 -5.515625 3.046875 -5.78125 2.203125 -5.78125 L 0.640625 -5.78125 L 0.640625 0 L 2.40625 0 C 2.984375 0 3.453125 -0.125 3.8125 -0.40625 C 4 -0.53125 4.140625 -0.71875 4.25 -0.9375 C 4.359375 -1.140625 4.40625 -1.375 4.40625 -1.609375 Z M 3.390625 -4.328125 C 3.390625 -4.015625 3.296875 -3.796875 3.109375 -3.640625 C 2.921875 -3.484375 2.671875 -3.40625 2.375 -3.40625 L 1.234375 -3.40625 L 1.234375 -5.203125 L 2.203125 -5.203125 C 2.984375 -5.203125 3.390625 -4.90625 3.390625 -4.328125 Z M 3.8125 -1.71875 C 3.8125 -1.375 3.703125 -1.09375 3.453125 -0.890625 C 3.234375 -0.671875 2.9375 -0.5625 2.578125 -0.5625 L 1.234375 -0.5625 L 1.234375 -2.8125 L 2.671875 -2.8125 C 2.96875 -2.8125 3.234375 -2.71875 3.453125 -2.5 C 3.5625 -2.40625 3.640625 -2.296875 3.71875 -2.171875 C 3.78125 -2.046875 3.8125 -1.890625 3.8125 -1.71875 Z M 3.8125 -1.71875 "/></g></g></g><g fill="#000000" fill-opacity="1"><g transform="translate(86.626732, 204.27176)"><g><path d="M 2.875 -2.71875 L 5.0625 -5.78125 L 4.296875 -5.78125 L 2.578125 -3.3125 L 0.84375 -5.78125 L 0.078125 -5.78125 L 2.28125 -2.71875 L 2.28125 0 L 2.875 0 Z M 2.875 -2.71875 "/></g></g></g><g fill="#000000" fill-opacity="1"><g transform="translate(94.256987, 204.27176)"><g/></g></g><g fill="#000000" fill-opacity="1"><g transform="translate(99.040757, 204.27176)"><g><path d="M 2.59375 -1.421875 L 2.59375 -5.78125 L 2 -5.78125 L 2 -1.421875 C 2 -1.0625 1.859375 -0.8125 1.578125 -0.65625 C 1.34375 -0.515625 1.078125 -0.46875 0.734375 -0.515625 C 0.4375 -0.546875 0.203125 -0.640625 0.046875 -0.78125 L 0.046875 -0.125 C 0.09375 -0.0625 0.203125 -0.03125 0.34375 0.015625 C 0.5 0.0625 0.671875 0.078125 0.859375 0.078125 C 1.3125 0.109375 1.703125 0.015625 2 -0.203125 C 2.390625 -0.453125 2.59375 -0.859375 2.59375 -1.421875 Z M 2.59375 -1.421875 "/></g></g></g><g fill="#000000" fill-opacity="1"><g transform="translate(104.631741, 204.27176)"><g><path d="M 4.078125 0 L 4.078125 -0.546875 L 1.234375 -0.546875 L 1.234375 -2.609375 L 3.984375 -2.609375 L 3.984375 -3.171875 L 1.234375 -3.171875 L 1.234375 -5.234375 L 4.078125 -5.234375 L 4.078125 -5.78125 L 0.640625 -5.78125 L 0.640625 0 Z M 4.078125 0 "/></g></g></g><g fill="#000000" fill-opacity="1"><g transform="translate(111.828643, 204.27176)"><g><path d="M 2.234375 -2.71875 C 2.984375 -2.546875 3.5 -2.34375 3.765625 -2.125 C 3.953125 -1.96875 4.046875 -1.78125 4.046875 -1.53125 C 4.046875 -1.296875 4 -1.109375 3.890625 -0.96875 C 3.640625 -0.609375 3.171875 -0.4375 2.53125 -0.4375 C 1.625 -0.4375 1.125 -0.734375 1.015625 -1.34375 L 0.3125 -1.34375 C 0.515625 -0.375 1.265625 0.109375 2.53125 0.109375 C 3.109375 0.109375 3.578125 -0.015625 3.96875 -0.265625 C 4.421875 -0.5625 4.65625 -1 4.65625 -1.578125 C 4.65625 -2.0625 4.46875 -2.421875 4.09375 -2.671875 C 3.828125 -2.859375 3.40625 -3.03125 2.828125 -3.1875 C 2.234375 -3.34375 1.84375 -3.46875 1.671875 -3.5625 C 1.28125 -3.75 1.078125 -4.03125 1.09375 -4.390625 C 1.09375 -4.578125 1.125 -4.734375 1.203125 -4.859375 C 1.421875 -5.1875 1.8125 -5.359375 2.375 -5.359375 C 3.171875 -5.359375 3.625 -5.09375 3.734375 -4.609375 L 4.390625 -4.609375 C 4.171875 -5.4375 3.5 -5.859375 2.375 -5.859375 C 1.875 -5.859375 1.421875 -5.734375 1.046875 -5.453125 C 0.65625 -5.1875 0.46875 -4.78125 0.46875 -4.234375 C 0.46875 -3.5 1.0625 -2.984375 2.234375 -2.71875 Z M 2.234375 -2.71875 "/></g></g></g><g fill="#000000" fill-opacity="1"><g transform="translate(119.195487, 204.27176)"><g><path d="M 2.234375 -2.71875 C 2.984375 -2.546875 3.5 -2.34375 3.765625 -2.125 C 3.953125 -1.96875 4.046875 -1.78125 4.046875 -1.53125 C 4.046875 -1.296875 4 -1.109375 3.890625 -0.96875 C 3.640625 -0.609375 3.171875 -0.4375 2.53125 -0.4375 C 1.625 -0.4375 1.125 -0.734375 1.015625 -1.34375 L 0.3125 -1.34375 C 0.515625 -0.375 1.265625 0.109375 2.53125 0.109375 C 3.109375 0.109375 3.578125 -0.015625 3.96875 -0.265625 C 4.421875 -0.5625 4.65625 -1 4.65625 -1.578125 C 4.65625 -2.0625 4.46875 -2.421875 4.09375 -2.671875 C 3.828125 -2.859375 3.40625 -3.03125 2.828125 -3.1875 C 2.234375 -3.34375 1.84375 -3.46875 1.671875 -3.5625 C 1.28125 -3.75 1.078125 -4.03125 1.09375 -4.390625 C 1.09375 -4.578125 1.125 -4.734375 1.203125 -4.859375 C 1.421875 -5.1875 1.8125 -5.359375 2.375 -5.359375 C 3.171875 -5.359375 3.625 -5.09375 3.734375 -4.609375 L 4.390625 -4.609375 C 4.171875 -5.4375 3.5 -5.859375 2.375 -5.859375 C 1.875 -5.859375 1.421875 -5.734375 1.046875 -5.453125 C 0.65625 -5.1875 0.46875 -4.78125 0.46875 -4.234375 C 0.46875 -3.5 1.0625 -2.984375 2.234375 -2.71875 Z M 2.234375 -2.71875 "/></g></g></g><g fill="#000000" fill-opacity="1"><g transform="translate(126.562334, 204.27176)"><g><path d="M 1.234375 0 L 1.234375 -5.78125 L 0.640625 -5.78125 L 0.640625 0 Z M 1.234375 0 "/></g></g></g><g fill="#000000" fill-opacity="1"><g transform="translate(130.921253, 204.27176)"><g><path d="M 5.9375 -1.765625 L 5.28125 -1.765625 C 5.078125 -1.390625 4.796875 -1.09375 4.453125 -0.859375 C 4.09375 -0.640625 3.6875 -0.53125 3.265625 -0.53125 C 2.625 -0.53125 2.078125 -0.75 1.625 -1.234375 C 1.1875 -1.6875 0.984375 -2.234375 0.984375 -2.875 C 0.984375 -3.53125 1.1875 -4.078125 1.625 -4.53125 C 1.84375 -4.75 2.078125 -4.921875 2.359375 -5.046875 C 2.640625 -5.171875 2.90625 -5.25 3.171875 -5.25 C 3.4375 -5.25 3.671875 -5.203125 3.875 -5.15625 C 4.5 -4.96875 4.96875 -4.59375 5.28125 -4.015625 L 5.9375 -4.015625 C 5.71875 -4.5625 5.359375 -5 4.875 -5.34375 C 4.390625 -5.6875 3.84375 -5.859375 3.265625 -5.859375 C 2.453125 -5.859375 1.78125 -5.5625 1.21875 -4.96875 C 0.953125 -4.703125 0.75 -4.375 0.609375 -4.015625 C 0.453125 -3.65625 0.375 -3.28125 0.375 -2.875 C 0.375 -2.0625 0.65625 -1.375 1.21875 -0.796875 C 1.78125 -0.203125 2.453125 0.078125 3.265625 0.078125 C 3.84375 0.078125 4.390625 -0.078125 4.890625 -0.421875 C 5.375 -0.765625 5.71875 -1.203125 5.9375 -1.765625 Z M 5.9375 -1.765625 "/></g></g></g><g fill="#000000" fill-opacity="1"><g transform="translate(139.605127, 204.27176)"><g><path d="M 1.578125 -2.125 L 2.625 -4.78125 L 3.671875 -2.125 Z M 5.15625 0 L 2.625 -6.171875 L 0.078125 0 L 0.734375 0 L 1.34375 -1.578125 L 3.890625 -1.578125 L 4.515625 0 Z M 5.15625 0 "/></g></g></g><g fill="#000000" fill-opacity="1"><g transform="translate(147.337343, 204.27176)"><g/></g></g><g fill="#000000" fill-opacity="1"><g transform="translate(152.121111, 204.27176)"><g><path d="M 2.234375 -2.71875 C 2.984375 -2.546875 3.5 -2.34375 3.765625 -2.125 C 3.953125 -1.96875 4.046875 -1.78125 4.046875 -1.53125 C 4.046875 -1.296875 4 -1.109375 3.890625 -0.96875 C 3.640625 -0.609375 3.171875 -0.4375 2.53125 -0.4375 C 1.625 -0.4375 1.125 -0.734375 1.015625 -1.34375 L 0.3125 -1.34375 C 0.515625 -0.375 1.265625 0.109375 2.53125 0.109375 C 3.109375 0.109375 3.578125 -0.015625 3.96875 -0.265625 C 4.421875 -0.5625 4.65625 -1 4.65625 -1.578125 C 4.65625 -2.0625 4.46875 -2.421875 4.09375 -2.671875 C 3.828125 -2.859375 3.40625 -3.03125 2.828125 -3.1875 C 2.234375 -3.34375 1.84375 -3.46875 1.671875 -3.5625 C 1.28125 -3.75 1.078125 -4.03125 1.09375 -4.390625 C 1.09375 -4.578125 1.125 -4.734375 1.203125 -4.859375 C 1.421875 -5.1875 1.8125 -5.359375 2.375 -5.359375 C 3.171875 -5.359375 3.625 -5.09375 3.734375 -4.609375 L 4.390625 -4.609375 C 4.171875 -5.4375 3.5 -5.859375 2.375 -5.859375 C 1.875 -5.859375 1.421875 -5.734375 1.046875 -5.453125 C 0.65625 -5.1875 0.46875 -4.78125 0.46875 -4.234375 C 0.46875 -3.5 1.0625 -2.984375 2.234375 -2.71875 Z M 2.234375 -2.71875 "/></g></g></g><g fill="#000000" fill-opacity="1"><g transform="translate(159.487955, 204.27176)"><g><path d="M 1.578125 -2.125 L 2.625 -4.78125 L 3.671875 -2.125 Z M 5.15625 0 L 2.625 -6.171875 L 0.078125 0 L 0.734375 0 L 1.34375 -1.578125 L 3.890625 -1.578125 L 4.515625 0 Z M 5.15625 0 "/></g></g></g><g fill="#000000" fill-opacity="1"><g transform="translate(167.22017, 204.27176)"><g><path d="M 1.234375 -2.859375 L 1.234375 -5.203125 L 2.578125 -5.203125 C 2.921875 -5.203125 3.203125 -5.09375 3.421875 -4.875 C 3.625 -4.65625 3.734375 -4.390625 3.734375 -4.046875 C 3.734375 -3.703125 3.625 -3.421875 3.40625 -3.203125 C 3.171875 -2.96875 2.90625 -2.859375 2.578125 -2.859375 Z M 4.328125 -4.03125 C 4.328125 -4.53125 4.140625 -4.953125 3.78125 -5.28125 C 3.4375 -5.609375 3 -5.78125 2.484375 -5.78125 L 0.640625 -5.78125 L 0.640625 0 L 1.234375 0 L 1.234375 -2.28125 L 1.921875 -2.28125 L 3.625 0 L 4.421875 0 L 2.640625 -2.28125 C 3.078125 -2.3125 3.46875 -2.46875 3.78125 -2.765625 C 4.140625 -3.109375 4.328125 -3.53125 4.328125 -4.03125 Z M 4.328125 -4.03125 "/></g></g></g><g fill="#000000" fill-opacity="1"><g transform="translate(174.332112, 204.27176)"><g><path d="M 1.578125 -2.125 L 2.625 -4.78125 L 3.671875 -2.125 Z M 5.15625 0 L 2.625 -6.171875 L 0.078125 0 L 0.734375 0 L 1.34375 -1.578125 L 3.890625 -1.578125 L 4.515625 0 Z M 5.15625 0 "/></g></g></g><g fill="#000000" fill-opacity="1"><g transform="translate(182.064333, 204.27176)"><g><path d="M 5.9375 -1.765625 L 5.28125 -1.765625 C 5.078125 -1.390625 4.796875 -1.09375 4.453125 -0.859375 C 4.09375 -0.640625 3.6875 -0.53125 3.265625 -0.53125 C 2.625 -0.53125 2.078125 -0.75 1.625 -1.234375 C 1.1875 -1.6875 0.984375 -2.234375 0.984375 -2.875 C 0.984375 -3.53125 1.1875 -4.078125 1.625 -4.53125 C 1.84375 -4.75 2.078125 -4.921875 2.359375 -5.046875 C 2.640625 -5.171875 2.90625 -5.25 3.171875 -5.25 C 3.4375 -5.25 3.671875 -5.203125 3.875 -5.15625 C 4.5 -4.96875 4.96875 -4.59375 5.28125 -4.015625 L 5.9375 -4.015625 C 5.71875 -4.5625 5.359375 -5 4.875 -5.34375 C 4.390625 -5.6875 3.84375 -5.859375 3.265625 -5.859375 C 2.453125 -5.859375 1.78125 -5.5625 1.21875 -4.96875 C 0.953125 -4.703125 0.75 -4.375 0.609375 -4.015625 C 0.453125 -3.65625 0.375 -3.28125 0.375 -2.875 C 0.375 -2.0625 0.65625 -1.375 1.21875 -0.796875 C 1.78125 -0.203125 2.453125 0.078125 3.265625 0.078125 C 3.84375 0.078125 4.390625 -0.078125 4.890625 -0.421875 C 5.375 -0.765625 5.71875 -1.203125 5.9375 -1.765625 Z M 5.9375 -1.765625 "/></g></g></g><g fill="#000000" fill-opacity="1"><g transform="translate(190.748213, 204.27176)"><g><path d="M 5.9375 -1.765625 L 5.28125 -1.765625 C 5.078125 -1.390625 4.796875 -1.09375 4.453125 -0.859375 C 4.09375 -0.640625 3.6875 -0.53125 3.265625 -0.53125 C 2.625 -0.53125 2.078125 -0.75 1.625 -1.234375 C 1.1875 -1.6875 0.984375 -2.234375 0.984375 -2.875 C 0.984375 -3.53125 1.1875 -4.078125 1.625 -4.53125 C 1.84375 -4.75 2.078125 -4.921875 2.359375 -5.046875 C 2.640625 -5.171875 2.90625 -5.25 3.171875 -5.25 C 3.4375 -5.25 3.671875 -5.203125 3.875 -5.15625 C 4.5 -4.96875 4.96875 -4.59375 5.28125 -4.015625 L 5.9375 -4.015625 C 5.71875 -4.5625 5.359375 -5 4.875 -5.34375 C 4.390625 -5.6875 3.84375 -5.859375 3.265625 -5.859375 C 2.453125 -5.859375 1.78125 -5.5625 1.21875 -4.96875 C 0.953125 -4.703125 0.75 -4.375 0.609375 -4.015625 C 0.453125 -3.65625 0.375 -3.28125 0.375 -2.875 C 0.375 -2.0625 0.65625 -1.375 1.21875 -0.796875 C 1.78125 -0.203125 2.453125 0.078125 3.265625 0.078125 C 3.84375 0.078125 4.390625 -0.078125 4.890625 -0.421875 C 5.375 -0.765625 5.71875 -1.203125 5.9375 -1.765625 Z M 5.9375 -1.765625 "/></g></g></g><g fill="#000000" fill-opacity="1"><g transform="translate(199.432093, 204.27176)"><g><path d="M 5.734375 -2.90625 C 5.734375 -2.25 5.484375 -1.6875 5.03125 -1.21875 C 4.5625 -0.75 4 -0.53125 3.34375 -0.53125 C 2.6875 -0.53125 2.140625 -0.75 1.671875 -1.21875 C 1.203125 -1.6875 0.984375 -2.25 0.984375 -2.90625 C 0.984375 -3.546875 1.203125 -4.109375 1.671875 -4.578125 C 2.140625 -5.046875 2.6875 -5.28125 3.34375 -5.28125 C 4 -5.28125 4.5625 -5.046875 5.03125 -4.578125 C 5.484375 -4.109375 5.734375 -3.546875 5.734375 -2.90625 Z M 6.328125 -2.90625 C 6.328125 -3.3125 6.234375 -3.703125 6.09375 -4.0625 C 5.9375 -4.421875 5.71875 -4.734375 5.453125 -5 C 5.171875 -5.265625 4.859375 -5.484375 4.5 -5.640625 C 4.140625 -5.78125 3.75 -5.875 3.34375 -5.875 C 2.9375 -5.875 2.546875 -5.78125 2.1875 -5.640625 C 1.84375 -5.484375 1.515625 -5.265625 1.25 -5 C 0.984375 -4.734375 0.765625 -4.421875 0.609375 -4.0625 C 0.453125 -3.703125 0.375 -3.3125 0.375 -2.90625 C 0.375 -2.5 0.453125 -2.109375 0.609375 -1.75 C 0.765625 -1.390625 0.984375 -1.078125 1.25 -0.796875 C 1.515625 -0.53125 1.84375 -0.3125 2.1875 -0.15625 C 2.546875 -0.015625 2.9375 0.0625 3.34375 0.0625 C 3.75 0.0625 4.140625 -0.015625 4.5 -0.15625 C 4.859375 -0.3125 5.171875 -0.53125 5.453125 -0.796875 C 5.71875 -1.078125 5.9375 -1.390625 6.09375 -1.75 C 6.234375 -2.109375 6.328125 -2.5 6.328125 -2.90625 Z M 6.328125 -2.90625 "/></g></g></g><g fill="#000000" fill-opacity="1"><g transform="translate(229.921264, 204.849553)"><g><path d="M 24.40625 -5.703125 C 24.25 -5.921875 23.953125 -5.96875 23.75 -5.828125 C 21.203125 -4.03125 18.90625 -2.296875 16.796875 -0.671875 C 15.375 -3.03125 11.578125 -4.578125 6.5 -6.625 C 5.84375 -6.875 5.203125 -7.15625 4.53125 -7.421875 C 2.53125 -8.21875 1.828125 -9.46875 2.375 -11.203125 C 3.125 -13.59375 6.28125 -16.78125 10.546875 -19.5 C 14.625 -22.078125 18.625 -23.53125 20.5 -23.09375 C 21.09375 -22.96875 21.78125 -22.625 21.578125 -21.21875 C 21.53125 -20.96875 21.71875 -20.71875 21.96875 -20.671875 C 22.25 -20.65625 22.5 -20.828125 22.53125 -21.09375 C 22.828125 -23.21875 21.53125 -23.84375 20.71875 -24.046875 C 16.171875 -25.078125 3.296875 -17.34375 1.453125 -11.5 C 0.78125 -9.296875 1.71875 -7.53125 4.15625 -6.53125 C 4.828125 -6.25 5.5 -5.96875 6.15625 -5.71875 C 11.59375 -3.53125 14.953125 -2.078125 16.046875 -0.09375 C 7.203125 6.828125 2.703125 11.78125 3.453125 13.90625 C 3.578125 14.25 3.953125 14.78125 5 14.78125 C 5.078125 14.78125 5.171875 14.78125 5.25 14.78125 C 8.59375 14.53125 15.90625 9.53125 17.296875 2.453125 C 17.46875 1.625 17.421875 0.875 17.21875 0.203125 C 19.34375 -1.421875 21.703125 -3.171875 24.296875 -5.03125 C 24.53125 -5.203125 24.578125 -5.5 24.40625 -5.703125 Z M 16.34375 2.28125 C 15 9.03125 7.921875 13.59375 5.171875 13.828125 C 4.921875 13.828125 4.453125 13.828125 4.375 13.578125 C 4.09375 12.828125 5.5 10.703125 7.953125 8.21875 C 10.03125 6.09375 12.84375 3.625 16.375 0.84375 C 16.46875 1.296875 16.453125 1.75 16.34375 2.28125 Z M 16.34375 2.28125 "/></g></g></g><g fill="#000000" fill-opacity="1"><g transform="translate(253.367552, 204.849553)"><g><path d="M 21.09375 -14.75 C 20.78125 -15.203125 19.328125 -15.46875 3.796875 -15.125 C 4.296875 -17.15625 4.75 -18.96875 5.15625 -20.453125 C 5.21875 -20.71875 5.078125 -20.96875 4.828125 -21.046875 C 4.578125 -21.125 4.296875 -20.96875 4.21875 -20.71875 C 3.796875 -19.15625 3.328125 -17.25 2.796875 -15.09375 C 1.421875 -15.078125 -0.078125 -15.046875 -1.703125 -15 C -3.921875 -14.953125 -5.671875 -14.90625 -6.34375 -14.90625 C -6.625 -14.90625 -6.84375 -14.671875 -6.84375 -14.421875 C -6.84375 -14.15625 -6.625 -13.921875 -6.34375 -13.921875 C -5.65625 -13.953125 -3.90625 -13.96875 -1.671875 -14.046875 C -0.5 -14.078125 0.953125 -14.09375 2.578125 -14.15625 C 1.5 -9.59375 0.28125 -4.15625 -0.828125 1.171875 C -1.625 5.078125 -2.28125 8.453125 -2.703125 10.921875 C -2.921875 12.21875 -3.078125 13.25 -3.15625 13.953125 C -3.25 14.90625 -3.296875 15.453125 -2.828125 15.625 C -2.75 15.625 -2.703125 15.65625 -2.625 15.65625 C -2.203125 15.65625 -1.96875 15.046875 -1.78125 14.5 C -1.671875 14.25 -1.796875 13.96875 -2.046875 13.875 C -2.09375 13.875 -2.125 13.84375 -2.171875 13.84375 C -1.921875 11.90625 -1.171875 7.53125 0.28125 0.625 C 1.34375 -4.59375 2.53125 -9.828125 3.578125 -14.171875 C 10.453125 -14.328125 19.375 -14.453125 20.40625 -14.09375 C 20.578125 -13.953125 20.796875 -13.953125 21 -14.078125 C 21.203125 -14.21875 21.25 -14.53125 21.09375 -14.75 Z M 21.09375 -14.75 "/></g></g></g><g fill="#000000" fill-opacity="1"><g transform="translate(256.692026, 204.849553)"><g><path d="M 9.953125 -5.40625 C 9.71875 -5.53125 9.421875 -5.453125 9.296875 -5.21875 C 6.921875 -1.421875 4.921875 0.28125 4.5 0.125 C 4.5 0.125 4 -0.15625 4.46875 -3.03125 C 4.65625 -4 4.71875 -4.546875 4.25 -4.75 C 3.796875 -4.921875 3.53125 -4.546875 3 -3.796875 C 2.578125 -3.203125 2 -2.40625 1.375 -1.84375 C 1.296875 -1.796875 1.03125 -1.546875 0.90625 -1.65625 C 0.53125 -1.953125 0.453125 -3.578125 1.328125 -5.078125 C 1.46875 -5.296875 1.375 -5.59375 1.15625 -5.75 C 0.921875 -5.875 0.625 -5.796875 0.5 -5.578125 C -0.5 -3.828125 -0.59375 -1.65625 0.28125 -0.921875 C 0.5 -0.71875 1.125 -0.375 2 -1.09375 C 2.578125 -1.59375 3.078125 -2.25 3.46875 -2.796875 C 3.125 -0.46875 3.328125 0.703125 4.15625 1.03125 C 4.28125 1.078125 4.40625 1.078125 4.5 1.078125 C 6.40625 1.078125 9.46875 -3.71875 10.09375 -4.71875 C 10.25 -4.953125 10.171875 -5.25 9.953125 -5.40625 Z M 9.953125 -5.40625 "/></g></g></g><g fill="#000000" fill-opacity="1"><g transform="translate(265.640607, 204.849553)"><g><path d="M 10.671875 -20.875 C 10.5 -21.03125 10.28125 -21.078125 10.046875 -21.03125 C 8.96875 -20.671875 7.046875 -15.453125 5.203125 -6.84375 C 5.15625 -6.703125 5.078125 -6.578125 5 -6.421875 C 4.875 -7.40625 4.21875 -7.671875 4 -7.75 C 2.921875 -8.078125 1.21875 -7.09375 0.046875 -4.59375 C -0.84375 -2.71875 -1.03125 -0.28125 0.09375 0.375 C 0.65625 0.703125 1.59375 0.65625 2.96875 -1.34375 C 3.578125 -2.203125 4.09375 -3.03125 4.59375 -3.828125 C 4.328125 -2.40625 4.046875 -0.90625 3.796875 0.671875 C 3.328125 3.46875 2.96875 5.828125 2.78125 7.53125 C 2.375 10.84375 2.578125 11.296875 3.078125 11.453125 C 3.125 11.46875 3.203125 11.46875 3.25 11.46875 C 3.703125 11.46875 4 10.90625 4.15625 10.53125 C 4.28125 10.296875 4.171875 10 3.921875 9.90625 C 3.796875 9.828125 3.65625 9.828125 3.53125 9.875 C 3.578125 8.796875 3.828125 6.34375 4.75 0.84375 C 5.203125 -1.90625 5.671875 -4.34375 6.125 -6.5 C 8 -10.046875 8.953125 -13.046875 9.71875 -15.421875 C 9.828125 -15.71875 9.921875 -16 10 -16.25 C 11.328125 -20.21875 10.828125 -20.703125 10.671875 -20.875 Z M 2.171875 -1.90625 C 1.21875 -0.53125 0.703125 -0.40625 0.578125 -0.453125 C 0.203125 -0.671875 0.078125 -2.40625 0.921875 -4.203125 C 1.78125 -6 2.921875 -6.84375 3.546875 -6.84375 C 3.625 -6.84375 3.671875 -6.84375 3.71875 -6.828125 C 4.125 -6.71875 4.046875 -6 4.03125 -5.796875 C 4 -5.578125 4.125 -5.34375 4.34375 -5.28125 C 3.71875 -4.203125 3 -3.078125 2.171875 -1.90625 Z M 9.09375 -16.546875 C 9 -16.296875 8.90625 -16.03125 8.828125 -15.71875 C 8.375 -14.375 7.875 -12.84375 7.203125 -11.125 C 8.25 -15.28125 9.203125 -17.875 9.796875 -19.171875 C 9.703125 -18.578125 9.46875 -17.71875 9.09375 -16.546875 Z M 9.09375 -16.546875 "/></g></g></g><g fill="#000000" fill-opacity="1"><g transform="translate(273.464371, 204.849553)"><g><path d="M 7.296875 -5.671875 C 7.078125 -5.828125 6.796875 -5.75 6.65625 -5.53125 C 4.96875 -2.828125 2.171875 -0.28125 1.328125 -0.625 C 1.21875 -0.671875 0.421875 -1.15625 1.53125 -5.375 C 1.578125 -5.65625 1.421875 -5.90625 1.171875 -5.96875 C 0.90625 -6.03125 0.65625 -5.875 0.578125 -5.625 C -0.328125 -2.09375 -0.203125 -0.21875 0.921875 0.25 C 1.09375 0.328125 1.28125 0.34375 1.453125 0.34375 C 3.328125 0.34375 6.203125 -3 7.46875 -5.03125 C 7.59375 -5.25 7.53125 -5.546875 7.296875 -5.671875 Z M 1.40625 -7.703125 C 2.671875 -7.625 2.65625 -9.21875 1.625 -8.875 C 1.09375 -8.71875 0.421875 -7.75 1.40625 -7.703125 Z M 1.40625 -7.703125 "/></g></g></g><g fill="#000000" fill-opacity="1"><g transform="translate(279.788364, 204.849553)"><g><path d="M 9.046875 -5.421875 C 8.828125 -5.59375 8.53125 -5.546875 8.375 -5.34375 C 7.328125 -4 5.59375 -2.875 4.28125 -3.125 C 4.296875 -3.296875 4.328125 -3.46875 4.328125 -3.65625 C 4.5 -6.46875 3.625 -7.046875 3.09375 -7.15625 C 2.5 -7.28125 1.875 -6.828125 1.578125 -6.078125 C 1.453125 -6.125 1.296875 -6.125 1.171875 -6.03125 C 0.171875 -5.40625 -0.65625 -3.796875 -0.203125 -2.078125 C 0.09375 -1.046875 0.796875 -0.40625 1.71875 -0.40625 C 2.59375 -0.40625 3.53125 -1.046875 4 -2.203125 C 5.75 -1.828125 7.84375 -3.125 9.125 -4.75 C 9.296875 -4.96875 9.25 -5.28125 9.046875 -5.421875 Z M 1.75 -1.34375 C 1.71875 -1.34375 1.71875 -1.34375 1.71875 -1.34375 C 1.09375 -1.375 0.828125 -1.96875 0.75 -2.328125 C 0.5 -3.171875 0.703125 -4.34375 1.40625 -5 C 1.453125 -4.15625 1.921875 -3.21875 3.125 -2.578125 C 2.78125 -1.78125 2.171875 -1.34375 1.75 -1.34375 Z M 3.375 -3.703125 C 3.34375 -3.65625 3.34375 -3.59375 3.34375 -3.546875 C 2.40625 -4.171875 2.25 -4.96875 2.421875 -5.59375 C 2.546875 -6 2.796875 -6.203125 2.921875 -6.203125 C 3.046875 -6.171875 3.46875 -5.703125 3.375 -3.703125 Z M 3.375 -3.703125 "/></g></g></g></svg>